<?xml version="1.0" encoding="utf-8"?>
<!-- Generator: Adobe Illustrator 18.1.1, SVG Export Plug-In . SVG Version: 6.00 Build 0)  -->
<svg version="1.1" id="Layer_1" xmlns="http://www.w3.org/2000/svg" xmlns:xlink="http://www.w3.org/1999/xlink" x="0px" y="0px"
	 viewBox="0 0 512 512" enable-background="new 0 0 512 512" xml:space="preserve">
<g>
	<path d="M0,270c0-9.3,0-18.7,0-28c0.7-2.8,1.4-5.5,2-8.3c5.1-21.4,15.7-39.8,32.7-53.6c21.8-17.7,47-25.8,75.4-22.2
		c19.3,2.4,36.5,9.5,51.4,21.8c49.6-24.8,99-49.6,148.6-74.2c3.8-1.9,5.2-4,5-8.3c-0.9-14.7,2.9-28.6,9.2-41.7
		c5.7-12.1,13.8-22.4,23.9-31.4c10.7-9.5,22.7-16.4,36.5-20.2c5.1-1.4,10.2-2.7,15.3-4c9,0,18,0,27,0c0.5,0.3,1,0.8,1.5,0.9
		c8.9,2.6,18.1,4.3,26.5,7.8c13,5.4,23.8,14,33.1,24.7c9.3,10.7,16,22.6,19.8,36.2c1.4,5.1,2.7,10.2,4,15.3c0,9,0,18,0,27
		c-2,7.1-3.6,14.3-6,21.3c-8.2,23.5-24.2,40.6-45.6,52.4c-19.2,10.7-40.2,13.5-62,10.3c-16.7-2.4-31.7-8.6-44.9-19.1
		c-2.2-1.7-4-1.8-6.6-0.5c-48.7,24.5-97.5,48.9-146.3,73.1c-3.1,1.6-3.7,3.3-3.7,6.4c0,3.1,0.6,4.8,3.7,6.4
		c48.8,24.2,97.6,48.6,146.3,73.1c2.8,1.4,4.6,0.9,7-0.8c4.9-3.5,9.9-7,15.3-9.7c15.1-7.6,31.1-10.7,48-10.2
		c13.7,0.4,26.6,3.5,38.8,9.2c12.3,5.7,22.8,13.9,31.8,24.1c9.5,10.7,16.4,22.7,20.2,36.5c1.4,5.1,2.7,10.2,4,15.3c0,9,0,18,0,27
		c-0.3,0.5-0.8,1-0.9,1.5c-2.6,8.9-4.3,18.1-7.8,26.5c-5.4,13-14,23.8-24.7,33.1c-10.7,9.3-22.6,16-36.2,19.8
		c-5.1,1.4-10.2,2.7-15.3,4c-9,0-18,0-27,0c-1.8-0.3-3.7-0.6-5.5-1c-23.3-5.2-43-16.5-58-35.1c-14.7-18.3-22.5-39.3-21.5-63.1
		c0.1-3.1-1.2-4.4-3.6-5.6c-50-24.9-99.9-49.8-150.1-74.8c-15.8,13.9-34.9,20.7-55.6,22.6c-17.4,1.6-34.3-1.9-50.1-9.6
		C29.3,332.5,12.2,311.7,3.5,284C2.1,279.4,1.2,274.7,0,270z"/>
</g>
</svg>
