<?xml version="1.0" encoding="utf-8"?>
<!-- Generator: Adobe Illustrator 18.1.1, SVG Export Plug-In . SVG Version: 6.00 Build 0)  -->
<svg version="1.1" id="Layer_1" xmlns="http://www.w3.org/2000/svg" xmlns:xlink="http://www.w3.org/1999/xlink" x="0px" y="0px"
	 viewBox="0 0 511 512" enable-background="new 0 0 511 512" xml:space="preserve">
<path d="M511,122c-3.5,11.7-7.9,22.9-16.8,31.7c-7.9,7.9-15.9,15.6-23.4,22.9C425.9,131.7,380.7,86.5,335.2,41
	c15.1-14,27.4-33,50.3-38.4c3.8-0.9,7.7-1.7,11.5-2.6c3.7,0,7.3,0,11,0c0.6,0.3,1.1,0.8,1.7,0.8c15.5,1.8,28.5,8.6,39.4,19.6
	c14.2,14.3,28.5,28.5,42.8,42.8c7.4,7.4,13.1,15.9,16.4,25.9c0.9,2.6,1.8,5.2,2.8,7.8C511,105.3,511,113.7,511,122z M4,512
	c1.1-0.4,2.1-0.9,3.2-1.2c47.6-11.9,95.2-23.9,142.8-35.8c1.6-0.4,3.2-1,5.4-1.6c-8.9-8.1-12.9-18-14.7-29
	c-21.4,2.8-39.7-2.9-54.8-17.8c-15-14.9-20.9-33.2-18.4-54.4c-11.3-2.1-21.2-6.8-29.1-15.7C27.8,398.7,17.3,440.3,7,482
	c-2.5,10-4.7,20-7,30C1.3,512,2.7,512,4,512z M353.5,112.9C272.3,194.1,191,275.4,109.7,356.7c-0.7,0.7-1.4,1.4-2.1,2.1
	c-12.2,13.2-11.9,33.3,0.6,45.5c12.8,12.4,32.8,12.1,45.8-0.9C235.5,322,317,240.5,398.6,159c1.2-1.2,2.4-2.6,3.3-3.5
	c-15.3-15.3-30.2-30.2-45.9-45.8C355.2,110.7,354.5,111.9,353.5,112.9z M422.3,180.1C340.9,261.4,259.4,342.8,178,424.2
	c-1.2,1.2-2.4,2.4-3.4,3.7c-5.3,6.9-4.5,16.4,1.9,22.1c6.2,5.6,15.5,5.5,21.8-0.4c4.5-4.2,8.9-8.6,13.2-12.9
	c77.5-77.5,155-155,232.5-232.5c1.1-1.1,2.2-2.4,3.1-3.3c-7.6-7.6-15-15-22.7-22.7C423.7,178.7,423,179.4,422.3,180.1z M307.5,68.7
	c-20.6,20.6-41.3,41.1-62,61.7C184.9,190.9,124.4,251.4,63.9,312c-7.6,7.6-7.9,17.6-0.9,24.3c6.8,6.6,16.3,6,23.9-1.6
	c81.3-81.2,162.6-162.5,243.9-243.7c1.2-1.2,2.3-2.4,3.1-3.2c-7.5-7.5-14.9-14.9-23.1-23.1C309.8,65.9,308.8,67.4,307.5,68.7z"/>
</svg>
