<?xml version="1.0" encoding="utf-8"?>
<!-- Generator: Adobe Illustrator 18.1.1, SVG Export Plug-In . SVG Version: 6.00 Build 0)  -->
<svg version="1.1" id="Layer_1" xmlns="http://www.w3.org/2000/svg" xmlns:xlink="http://www.w3.org/1999/xlink" x="0px" y="0px"
	 viewBox="0 6.8 50 36.3" enable-background="new 0 6.8 50 36.3" xml:space="preserve">
<path d="M3.5,18.9v12.1c0,0.9-0.8,1.7-1.7,1.7S0,32,0,31.1V18.9c0-0.9,0.8-1.7,1.7-1.7S3.5,18,3.5,18.9z M47.4,6.8
	c-1.4,0-2.6,1.2-2.6,2.6v31.1c0,1.4,1.2,2.6,2.6,2.6S50,42,50,40.5V9.5C50,8,48.8,6.8,47.4,6.8z M5.1,18.9l38-8.4v29.3l-8.7-2v1.9
	h0.1c0,1.9-1.5,3.5-3.5,3.5H15.5c-1.9,0-3.5-1.5-3.5-3.5v-6.8l-6.9-1.5V18.9z M13.8,39.7c0,0.9,0.8,1.7,1.7,1.7H31
	c0.9,0,1.7-0.8,1.7-1.7v-2.2l-19-4.2V39.7z"/>
</svg>
