<?xml version="1.0" encoding="utf-8"?>
<!-- Generator: Adobe Illustrator 18.1.1, SVG Export Plug-In . SVG Version: 6.00 Build 0)  -->
<svg version="1.1" id="Layer_1" xmlns="http://www.w3.org/2000/svg" xmlns:xlink="http://www.w3.org/1999/xlink" x="0px" y="0px"
	 viewBox="-386 273.3 69 50" enable-background="new -386 273.3 69 50" xml:space="preserve">
<path id="path-1" d="M-320.6,323.3c-2,0-3.6-1.6-3.6-3.6v-42.9c0-2,1.6-3.6,3.6-3.6c2,0,3.6,1.6,3.6,3.6v42.9
	C-317,321.7-318.6,323.3-320.6,323.3z M-338.4,318.5c0,2.6-2.1,4.8-4.8,4.8h-21.4c-2.6,0-4.8-2.1-4.8-4.8v-9.4l-9.5-2.1v-17.2
	l52.4-11.6v40.4l-12-2.7V318.5z M-340.8,315.5l-26.2-5.8v8.9c0,1.3,1.1,2.4,2.4,2.4h21.4c1.3,0,2.4-1.1,2.4-2.4V315.5z M-383.6,309
	c-1.3,0-2.4-1.1-2.4-2.4v-16.7c0-1.3,1.1-2.4,2.4-2.4s2.4,1.1,2.4,2.4v16.7C-381.2,307.9-382.3,309-383.6,309z"/>
</svg>
