<?xml version="1.0" encoding="utf-8"?>
<!-- Generator: Adobe Illustrator 18.1.1, SVG Export Plug-In . SVG Version: 6.00 Build 0)  -->
<svg version="1.1" id="Layer_1" xmlns="http://www.w3.org/2000/svg" xmlns:xlink="http://www.w3.org/1999/xlink" x="0px" y="0px"
	 viewBox="0 0 415.5 416" enable-background="new 0 0 415.5 416" xml:space="preserve">
<path d="M399.2,347.1c-3.2-1.1-5.8-2-8.4-3c-19.8-7.4-39.6-14.8-59.3-22.3c-7.2-2.7-14.2-2.6-21.4,0.2
	c-47.1,18.2-94.3,18.9-140.4-2.1c-55.5-25.3-91-68.1-99.3-129.1C61.3,123.4,87,69.2,142.7,30.9c73.1-50.4,171.8-37.7,231.2,27.9
	c49.6,54.8,55.5,137.2,14.1,199.4c-4.7,7-6,13.9-4,22.2c5.1,20.5,9.7,41.1,14.4,61.7C398.8,343.5,398.9,345,399.2,347.1z M100.8,314
	c-46.3-41.5-63-94.2-52.5-156.8C9.6,194.1-6.5,237.3,2.4,289.1c3.2,18.4,10.4,35.4,20.7,51c3.9,5.8,6,11.8,3.8,18.8
	c-0.8,2.7-1.1,5.5-1.7,8.3c-3.1,16.1-6.2,32.3-9.3,48.9c1.5-0.4,2.4-0.7,3.3-1c16.1-6.3,32.3-12.4,48.2-19.1c8.8-3.7,17-3.6,26-0.4
	c52.4,18.9,101.5,12.2,146.5-20.8c8-5.8,14.8-13.1,22.2-19.8C201.3,366.7,146.8,355.2,100.8,314z"/>
</svg>
