<?xml version="1.0" encoding="utf-8"?>
<!-- Generator: Adobe Illustrator 18.1.1, SVG Export Plug-In . SVG Version: 6.00 Build 0)  -->
<svg version="1.1" id="Layer_1" xmlns="http://www.w3.org/2000/svg" xmlns:xlink="http://www.w3.org/1999/xlink" x="0px" y="0px"
	 viewBox="0 0 92.9 115.5" enable-background="new 0 0 92.9 115.5" xml:space="preserve">
<g>
	<path fill="#FFFFFF" d="M9.8,106.5c1,1,1.5,2.2,1.5,3.6c0,1.4-0.5,2.6-1.6,3.7c-0.8,0.8-1.9,1.4-3.2,1.5H1.2V99.9h4.9
		c1,0,1.9,0.3,2.5,1c0.7,0.7,1,1.5,1,2.4c0,0.9-0.3,1.7-1,2.4C8.9,105.7,9.3,106,9.8,106.5z M3.1,101.5v3.4h3.1c0.4,0,0.7-0.2,1-0.4
		c0.3-0.3,0.5-0.7,0.5-1.2c0-0.5-0.2-0.9-0.5-1.2c-0.3-0.3-0.7-0.5-1.1-0.5H3.1z M6,113.6c0.9,0,1.7-0.3,2.3-1c0.7-0.7,1-1.5,1-2.5
		s-0.3-1.8-1-2.5c-0.7-0.7-1.5-1-2.3-1H3.1v7H6z"/>
	<path fill="#FFFFFF" d="M15.3,99.9v15.5h-1.9V99.9H15.3z"/>
	<path fill="#FFFFFF" d="M18.1,115.3V99.9h1.9v13.8h5.6v1.7H18.1z"/>
	<path fill="#FFFFFF" d="M27.1,115.3V99.9h1.9v13.8h5.6v1.7H27.1z"/>
	<path fill="#FFFFFF" d="M38.3,109.1L33,99.9h2.1l4.1,7.2l4.1-7.2h2.1l-5.3,9.2v6.3h-1.9V109.1z"/>
	<path fill="#FFFFFF" d="M57.7,111.9l1.4,1.2c-1.7,1.6-3.7,2.4-5.7,2.4c-2.2,0-4.1-0.8-5.7-2.3c-1.6-1.5-2.3-3.4-2.3-5.6
		c0-2.1,0.8-4,2.3-5.6c1.6-1.6,3.4-2.3,5.7-2.3c2.1,0,4,0.8,5.7,2.4l-1.4,1.2c-1.4-1.3-2.9-1.9-4.4-1.9c-1.6,0-3.1,0.6-4.3,1.8
		c-1.2,1.2-1.8,2.7-1.8,4.4c0,1.7,0.6,3.2,1.8,4.4c1.2,1.2,2.6,1.8,4.3,1.8C54.8,113.8,56.3,113.2,57.7,111.9z"/>
	<path fill="#FFFFFF" d="M73.4,102c1.6,1.6,2.3,3.4,2.3,5.6c0,2.2-0.8,4-2.3,5.6c-1.6,1.6-3.5,2.3-5.7,2.3c-2.2,0-4.1-0.8-5.7-2.3
		c-1.6-1.6-2.3-3.4-2.3-5.6c0-2.2,0.8-4,2.3-5.6s3.5-2.3,5.7-2.3C69.9,99.6,71.8,100.4,73.4,102z M67.7,101.3
		c-1.6,0-3.1,0.6-4.3,1.8c-1.2,1.2-1.8,2.7-1.8,4.4c0,1.7,0.6,3.2,1.8,4.4s2.6,1.8,4.3,1.8c1.7,0,3.1-0.6,4.3-1.8s1.8-2.7,1.8-4.4
		c0-1.7-0.6-3.2-1.8-4.4C70.8,101.9,69.3,101.3,67.7,101.3z"/>
	<path fill="#FFFFFF" d="M91.7,99.9v15.5h-1.9v-12.6l-5.1,6.7l-5.1-6.7v12.6h-1.9V99.9h2.1l5,6.5l5-6.5H91.7z"/>
</g>
<rect x="0" y="0" fill="#FFFFFF" width="92.9" height="92.9"/>
<g>
	<path fill="#EC1652" d="M55.3,36.7c2.6-2.6,3.9-5.8,3.9-9.5c0-3.7-1.3-6.8-3.9-9.5c-2.6-2.6-5.8-3.9-9.5-3.9H26.4v65.3h21.2
		c5-0.7,9.2-2.8,12.7-6.2c4.2-4.2,6.2-9.2,6.2-15.1c0-5.9-2.1-10.9-6.2-15.1c-2-2-4.2-3.6-6.6-4.6C54.2,37.7,54.8,37.2,55.3,36.7
		 M45.8,17.5c2.7,0,5,1,6.9,2.9c1.9,1.9,2.8,4.2,2.8,6.9c0,2.7-0.9,5-2.8,6.9c-1.3,1.3-3.3,2.1-6,2.4H30.1v-19H45.8z M30.1,75.4
		V40.2h15.1c4.8,0,9,1.7,12.4,5.2c3.4,3.4,5.1,7.6,5.1,12.5c0,4.9-1.7,9-5.1,12.4c-3.4,3.4-7.5,5.1-12.4,5.1H30.1z"/>
</g>
</svg>
